<?xml version="1.0" encoding="UTF-8" standalone="no"?>
<!-- Created with Inkscape (http://www.inkscape.org/) -->

<svg
   width="19.532644mm"
   height="16.721601mm"
   viewBox="0 0 19.532644 16.721601"
   version="1.1"
   id="svg1"
   xmlns="http://www.w3.org/2000/svg"
   xmlns:svg="http://www.w3.org/2000/svg">
  <defs
     id="defs1">
    <clipPath
       clipPathUnits="userSpaceOnUse"
       id="clipPath44">
      <path
         d="M 0,250 H 475.5 V 0 H 0 Z"
         transform="translate(-410.33251,-162.9067)"
         id="path44" />
    </clipPath>
  </defs>
  <g
     id="layer1"
     transform="translate(-50.340633,-3.2739191)">
    <path
       id="path43"
       d="m 0,0 c 0.002,-0.009 0.004,-0.018 0.007,-0.027 -0.022,-0.007 -0.041,-0.014 -0.064,-0.021 -2.833,-0.914 -7.718,-2.154 -13.363,-2.154 -6.071,0 -11.249,1.431 -13.954,2.351 10e-4,0.005 0.003,0.01 0.004,0.014 l 0.027,0.101 c 0.263,0.898 0.577,1.818 0.958,2.812 0.004,0.009 0.008,0.018 0.011,0.028 2.663,-0.865 7.293,-2.053 12.661,-2.053 5.167,0 9.66,1.103 12.365,1.956 0.106,0.034 0.206,0.066 0.306,0.099 C -1.041,3.101 -1.039,3.097 -1.038,3.092 -0.637,2.059 -0.288,1.019 0,0 m -0.19,-15.485 -0.112,-0.306 c -3.21,-0.823 -7.863,-1.703 -13.118,-1.703 -5.6,0 -10.514,0.998 -13.727,1.864 -0.038,0.099 -0.082,0.199 -0.118,0.297 l -0.095,0.258 c -0.1,0.267 -0.201,0.534 -0.287,0.808 -0.237,0.744 -0.43,1.491 -0.586,2.227 2.838,-0.869 8.208,-2.201 14.489,-2.201 6.335,0 11.749,1.356 14.568,2.225 -0.235,-1.119 -0.573,-2.284 -1.014,-3.469 m -3.586,-6.777 c -0.314,-0.466 -0.642,-0.923 -0.978,-1.373 -0.097,-0.131 -0.2,-0.257 -0.299,-0.386 -2.48,-0.41 -5.32,-0.708 -8.367,-0.708 -3.32,0 -6.393,0.354 -9.022,0.82 -0.097,0.128 -0.192,0.251 -0.288,0.381 -0.66,0.895 -1.265,1.786 -1.797,2.647 -0.149,0.24 -0.289,0.487 -0.43,0.733 2.943,-0.684 6.853,-1.328 11.213,-1.328 4.404,0 8.347,0.657 11.299,1.349 -0.448,-0.769 -0.886,-1.474 -1.331,-2.135 M 0.908,-4.317 C 1.061,-5.4 1.16,-6.5 1.197,-7.588 l 0.005,-0.116 c -3.258,-0.896 -8.546,-2.02 -14.622,-2.02 -6.455,0 -12.014,1.266 -15.199,2.183 0.001,0.036 0.001,0.069 0.002,0.106 l 0.006,0.159 c 0.003,0.094 0.006,0.19 0.011,0.284 0.045,0.804 0.134,1.648 0.276,2.649 2.964,-0.869 8.331,-2.127 14.573,-2.127 6.306,0 11.715,1.283 14.659,2.153 m -22.114,43.378 c -0.195,0.065 -0.366,0.223 -0.505,0.449 -0.446,0.731 -0.545,2.21 0.025,3.901 0.354,1.052 0.894,1.964 1.521,2.567 0.045,0.043 0.09,0.072 0.135,0.111 0.497,0.433 0.987,0.62 1.36,0.494 0.407,-0.137 0.707,-0.643 0.823,-1.387 0.133,-0.859 0.012,-1.912 -0.343,-2.963 -0.747,-2.216 -2.189,-3.451 -3.016,-3.172 m 11.687,6.135 c 0.116,0.744 0.415,1.25 0.823,1.387 0.079,0.027 0.164,0.04 0.253,0.04 0.328,0 0.713,-0.189 1.103,-0.527 0.047,-0.04 0.092,-0.074 0.138,-0.118 0.627,-0.603 1.167,-1.515 1.522,-2.567 0.572,-1.695 0.47,-3.177 0.021,-3.906 -0.138,-0.223 -0.307,-0.379 -0.502,-0.444 -0.823,-0.281 -2.268,0.955 -3.015,3.172 -0.355,1.051 -0.476,2.104 -0.343,2.963 M 47.735,41.16 c -1.26,1.629 -3.295,2.443 -6.213,2.443 -2.788,0 -6.381,-0.743 -10.872,-2.227 C 17.341,36.978 10.523,31.936 5.544,28.256 3.551,26.781 1.892,25.561 0.25,24.687 c -0.251,3.042 -1.388,6.029 -3.351,8.364 -1.095,1.327 -2.457,2.439 -3.964,3.239 0.34,0.415 0.633,0.868 0.86,1.353 0.082,0.172 0.144,0.351 0.209,0.529 0.042,0.011 0.084,0.017 0.125,0.031 1.461,0.493 1.922,2.908 1.049,5.498 -0.4,1.186 -1.022,2.227 -1.751,2.929 -0.638,0.614 -1.306,0.915 -1.928,0.893 -0.716,0.734 -1.552,1.359 -2.478,1.79 0.302,1.527 0.747,3.16 1.349,4.935 0.873,2.534 1.966,5.061 3.249,7.51 1.412,2.67 2.852,4.919 4.402,6.874 0.936,1.175 1.835,2.138 2.749,2.943 1.136,1.01 2.207,1.663 3.274,1.997 0.365,0.115 0.562,0.486 0.458,0.834 -0.084,0.28 -0.346,0.476 -0.639,0.476 -0.065,0 -0.129,-0.009 -0.191,-0.028 -1.279,-0.382 -2.491,-1.089 -3.815,-2.227 -0.987,-0.846 -1.958,-1.855 -2.965,-3.083 -1.636,-2.007 -3.159,-4.312 -4.655,-7.047 -1.356,-2.504 -2.519,-5.093 -3.456,-7.693 -0.637,-1.799 -1.109,-3.428 -1.443,-4.965 -0.081,0.014 -0.159,0.034 -0.24,0.044 -0.598,0.075 -1.203,0.052 -1.796,-0.047 -0.335,1.538 -0.806,3.167 -1.443,4.967 -0.938,2.601 -2.101,5.19 -3.457,7.694 -1.496,2.735 -3.019,5.04 -4.654,7.046 -1.009,1.229 -1.979,2.238 -2.966,3.085 -1.324,1.137 -2.536,1.844 -3.815,2.226 -0.062,0.019 -0.126,0.028 -0.191,0.028 -0.293,0 -0.549,-0.188 -0.637,-0.468 -0.11,-0.351 0.087,-0.726 0.438,-0.836 1.085,-0.34 2.156,-0.993 3.292,-2.003 0.914,-0.805 1.813,-1.767 2.75,-2.943 1.549,-1.956 2.989,-4.205 4.402,-6.875 1.282,-2.448 2.375,-4.975 3.249,-7.51 0.603,-1.779 1.048,-3.414 1.35,-4.942 -0.815,-0.381 -1.567,-0.891 -2.215,-1.512 -0.092,-0.086 -0.176,-0.18 -0.263,-0.27 -0.625,0.025 -1.295,-0.277 -1.935,-0.893 -0.729,-0.702 -1.351,-1.743 -1.751,-2.929 -0.873,-2.59 -0.412,-5.005 1.049,-5.498 0.04,-0.014 0.082,-0.02 0.122,-0.031 0.255,-0.689 0.618,-1.343 1.093,-1.912 -1.63,-0.86 -3.094,-2.078 -4.236,-3.547 -1.828,-2.307 -2.898,-5.197 -3.116,-8.141 -1.712,0.879 -3.428,2.146 -5.508,3.684 -4.979,3.68 -11.797,8.722 -25.106,13.12 -4.49,1.484 -8.084,2.227 -10.871,2.227 -2.918,0 -4.953,-0.814 -6.213,-2.443 -2.36,-3.053 0.082,-8.167 3.714,-11.643 1.449,-1.385 3.017,-2.649 4.402,-3.762 1.736,-1.398 2.906,-2.368 3.522,-3.173 0.059,-0.071 0.055,-0.064 0.111,-0.144 2.901,2.023 7.337,3.405 10.805,3.598 2.264,0.127 14.628,0.286 25.095,-2.394 0,-0.004 0,-0.007 -10e-4,-0.011 -0.003,-0.287 0.012,-0.573 0.024,-0.86 -7.492,1.901 -15.984,2.229 -20.88,2.229 -2.466,0 -4.018,-0.082 -4.07,-0.084 -3.632,-0.203 -7.874,-1.567 -10.573,-3.536 -0.222,-0.162 -0.43,-0.329 -0.63,-0.498 -0.222,-0.189 -0.427,-0.382 -0.618,-0.579 -0.643,-0.663 -1.116,-1.371 -1.335,-2.116 -0.561,-1.911 0.564,-3.903 3.345,-5.921 6.788,-4.929 17.478,-6.936 26.058,-0.313 3.114,2.405 5.674,4.255 7.702,5.581 0.629,0.41 1.208,0.772 1.732,1.079 0.494,-1.485 1.182,-2.91 2.117,-4.161 0.722,-0.996 1.585,-1.891 2.548,-2.651 -1.089,-1.203 -2.097,-2.615 -3.046,-4.274 C -26.01,6.296 -26.639,4.946 -27.23,3.4 -27.62,2.383 -27.941,1.44 -28.212,0.519 L -28.24,0.415 c -0.42,-1.457 -0.747,-2.995 -0.972,-4.571 -0.152,-1.054 -0.244,-1.939 -0.291,-2.784 -0.006,-0.102 -0.01,-0.205 -0.013,-0.307 L -29.521,-7.4 c -0.049,-1.265 -0.003,-2.378 0.143,-3.403 0.054,-0.396 0.125,-0.788 0.203,-1.178 0.169,-0.845 0.393,-1.706 0.665,-2.56 0.091,-0.288 0.197,-0.57 0.302,-0.852 l 0.094,-0.253 c 0.559,-1.517 1.287,-3.062 2.163,-4.594 l 0.082,-0.142 c 0.187,-0.327 0.374,-0.655 0.572,-0.975 0.545,-0.882 1.164,-1.793 1.838,-2.707 0.883,-1.2 1.758,-2.26 2.674,-3.241 0.7,-0.749 1.639,-1.722 2.714,-2.603 0.921,-0.738 2.015,-1.561 3.335,-1.999 0.31,-0.108 0.653,-0.162 1.004,-0.162 0.419,0 0.848,0.077 1.241,0.228 0.578,0.203 1.142,0.494 1.772,0.913 0.927,0.605 1.828,1.351 2.924,2.418 1.35,1.333 2.618,2.791 3.767,4.334 0.344,0.462 0.68,0.929 1.003,1.408 0.53,0.788 1.048,1.627 1.584,2.565 0.81,1.422 1.454,2.746 1.97,4.052 l 0.13,0.349 c 0.491,1.321 0.864,2.62 1.109,3.864 0.226,1.148 0.346,2.22 0.367,3.285 0,0.267 -0.01,0.532 -0.021,0.799 l -0.012,0.298 c -0.04,1.145 -0.143,2.304 -0.307,3.442 -0.211,1.47 -0.522,2.936 -0.924,4.36 -0.295,1.046 -0.653,2.113 -1.064,3.173 -0.38,0.98 -0.742,1.825 -1.108,2.589 -1.094,2.226 -2.385,4.166 -3.841,5.786 1.062,0.83 2.011,1.817 2.78,2.93 0.816,1.15 1.43,2.436 1.883,3.776 0.475,-0.284 0.986,-0.603 1.543,-0.966 2.028,-1.326 4.588,-3.176 7.702,-5.581 8.58,-6.623 19.27,-4.616 26.058,0.313 2.781,2.018 3.906,4.01 3.344,5.921 -0.218,0.745 -0.691,1.453 -1.334,2.116 -0.191,0.197 -0.396,0.39 -0.618,0.579 -0.2,0.169 -0.408,0.336 -0.63,0.498 -2.699,1.969 -6.941,3.333 -10.573,3.536 C 24.96,24.918 23.409,25 20.943,25 16.1,25 7.737,24.682 0.304,22.835 c 0.01,0.287 0.005,0.574 -0.001,0.861 10.42,2.624 22.629,2.466 24.878,2.34 3.468,-0.193 7.913,-1.566 10.815,-3.589 0.037,0.053 0.071,0.095 0.101,0.135 0.615,0.805 1.786,1.775 3.522,3.173 1.384,1.113 2.953,2.377 4.402,3.762 3.632,3.476 6.074,8.59 3.714,11.643"
       style="fill:#000000;fill-opacity:1;fill-rule:nonzero;stroke:none"
       transform="matrix(0.15634824,0,0,-0.15634824,62.264169,14.981588)"
       clip-path="url(#clipPath44)" />
  </g>
</svg>
